<svg width="20" height="20" viewBox="0 0 20 20" fill="none" xmlns="http://www.w3.org/2000/svg">
<path d="M8.94265 3.05737C8.69261 2.80741 8.35353 2.66699 7.99998 2.66699C7.64643 2.66699 7.30735 2.80741 7.05731 3.05737L1.05731 9.05737C0.80735 9.30741 0.666929 9.64649 0.666929 10C0.666929 10.3536 0.80735 10.6927 1.05731 10.9427L7.05731 16.9427C7.30878 17.1856 7.64558 17.32 7.99518 17.3169C8.34478 17.3139 8.67919 17.1737 8.9264 16.9265C9.17361 16.6793 9.31384 16.3448 9.31688 15.9952C9.31991 15.6456 9.18552 15.3088 8.94265 15.0574L5.33331 11.3334H18C18.3536 11.3334 18.6927 11.1929 18.9428 10.9429C19.1928 10.6928 19.3333 10.3537 19.3333 10C19.3333 9.64642 19.1928 9.30728 18.9428 9.05723C18.6927 8.80718 18.3536 8.66671 18 8.66671H5.33331L8.94265 4.94271C9.19261 4.69267 9.33303 4.35359 9.33303 4.00004C9.33303 3.64649 9.19261 3.30741 8.94265 3.05737Z" fill="white"/>
</svg>
