<svg width="16" height="16" viewBox="0 0 16 16" fill="none" xmlns="http://www.w3.org/2000/svg">
<path d="M7.51533 2.45796C7.45518 2.39432 7.40816 2.31944 7.37695 2.23763C7.34574 2.15581 7.33095 2.06864 7.33343 1.98111C7.33591 1.89357 7.3556 1.80738 7.39138 1.72746C7.42717 1.64753 7.47835 1.57544 7.542 1.5153C7.60564 1.45515 7.68051 1.40813 7.76233 1.37692C7.84415 1.34571 7.93132 1.33092 8.01885 1.3334C8.10639 1.33587 8.19258 1.35557 8.2725 1.39135C8.35242 1.42714 8.42452 1.47832 8.48466 1.54196L14.1513 7.54196C14.2684 7.66574 14.3336 7.82962 14.3336 7.99996C14.3336 8.1703 14.2684 8.33418 14.1513 8.45796L8.48466 14.4586C8.42491 14.5237 8.35284 14.5762 8.27262 14.6131C8.1924 14.6501 8.10564 14.6707 8.01738 14.6739C7.92912 14.677 7.84111 14.6626 7.75847 14.6314C7.67583 14.6002 7.60021 14.553 7.536 14.4923C7.47178 14.4317 7.42026 14.3589 7.38441 14.2782C7.34857 14.1975 7.32912 14.1104 7.3272 14.0221C7.32528 13.9338 7.34092 13.846 7.37321 13.7638C7.40551 13.6816 7.45382 13.6067 7.51533 13.5433L12.75 7.99996L7.51533 2.45796Z" fill="white"/>
</svg>
