<svg width="16" height="16" viewBox="0 0 16 16" fill="none" xmlns="http://www.w3.org/2000/svg">
<path d="M8.84586 2.44609C9.04589 2.24613 9.31715 2.13379 9.59999 2.13379C9.88283 2.13379 10.1541 2.24613 10.3541 2.44609L15.1541 7.2461C15.3541 7.44612 15.4664 7.71739 15.4664 8.00023C15.4664 8.28307 15.3541 8.55433 15.1541 8.75436L10.3541 13.5544C10.153 13.7487 9.88351 13.8562 9.60383 13.8537C9.32415 13.8513 9.05662 13.7391 8.85885 13.5414C8.66108 13.3436 8.5489 13.0761 8.54647 12.7964C8.54404 12.5167 8.65156 12.2473 8.84586 12.0461L11.7333 9.0669H1.59999C1.31709 9.0669 1.04578 8.95451 0.845745 8.75448C0.645706 8.55444 0.533325 8.28313 0.533325 8.00023C0.533325 7.71733 0.645706 7.44602 0.845745 7.24598C1.04578 7.04594 1.31709 6.93356 1.59999 6.93356H11.7333L8.84586 3.95436C8.64589 3.75433 8.53355 3.48307 8.53355 3.20023C8.53355 2.91739 8.64589 2.64612 8.84586 2.44609Z" fill="#7A6EFF"/>
</svg>
