<svg width="16" height="16" viewBox="0 0 16 16" fill="none" xmlns="http://www.w3.org/2000/svg">
<path d="M13.5417 7.51527C13.6053 7.45512 13.6802 7.4081 13.762 7.37689C13.8438 7.34568 13.931 7.33089 14.0185 7.33337C14.1061 7.33584 14.1923 7.35554 14.2722 7.39132C14.3521 7.42711 14.4242 7.47829 14.4843 7.54193C14.5445 7.60558 14.5915 7.68045 14.6227 7.76227C14.6539 7.84409 14.6687 7.93126 14.6662 8.01879C14.6638 8.10633 14.6441 8.19252 14.6083 8.27244C14.5725 8.35236 14.5213 8.42446 14.4577 8.4846L8.45767 14.1513C8.33389 14.2683 8.17001 14.3335 7.99967 14.3335C7.82933 14.3335 7.66545 14.2683 7.54167 14.1513L1.541 8.4846C1.47596 8.42485 1.42344 8.35278 1.38649 8.27256C1.34954 8.19234 1.3289 8.10558 1.32576 8.01732C1.32263 7.92905 1.33706 7.84105 1.36823 7.75841C1.39939 7.67577 1.44666 7.60015 1.5073 7.53594C1.56793 7.47172 1.64073 7.4202 1.72144 7.38435C1.80216 7.34851 1.8892 7.32906 1.9775 7.32714C2.06579 7.32521 2.15359 7.34086 2.2358 7.37315C2.318 7.40545 2.39296 7.45375 2.45634 7.51527L7.99967 12.7499L13.5417 7.51527Z" fill="white"/>
</svg>
