<svg width="20" height="20" viewBox="0 0 20 20" fill="none" xmlns="http://www.w3.org/2000/svg">
<path d="M17.5 15.8332V16.6665H2.5V15.8332L4.16667 14.1665V9.1665C4.16667 6.58317 5.85833 4.30817 8.33333 3.57484V3.33317C8.33333 2.89114 8.50893 2.46722 8.82149 2.15466C9.13405 1.8421 9.55797 1.6665 10 1.6665C10.442 1.6665 10.866 1.8421 11.1785 2.15466C11.4911 2.46722 11.6667 2.89114 11.6667 3.33317V3.57484C14.1417 4.30817 15.8333 6.58317 15.8333 9.1665V14.1665L17.5 15.8332ZM11.6667 17.4998C11.6667 17.9419 11.4911 18.3658 11.1785 18.6783C10.866 18.9909 10.442 19.1665 10 19.1665C9.55797 19.1665 9.13405 18.9909 8.82149 18.6783C8.50893 18.3658 8.33333 17.9419 8.33333 17.4998" fill="white"/>
</svg>
