<svg width="40" height="40" viewBox="0 0 40 40" fill="none" xmlns="http://www.w3.org/2000/svg">
<path d="M2.14282 10.7007H37.8571" stroke="#FF3B30" stroke-width="1.73288" stroke-linecap="round"/>
<path d="M32.8306 10.7007H7.15734C6.74291 18.1937 6.74937 25.6288 7.86626 33.0747C8.2786 35.8236 10.64 37.8573 13.4197 37.8573H26.5682C29.348 37.8573 31.7092 35.8236 32.1217 33.0747C33.2386 25.6288 33.2449 18.1937 32.8306 10.7007Z" fill="#FFE1D7" stroke="#FF3B30" stroke-width="1.73288" stroke-linecap="round" stroke-linejoin="round"/>
<path d="M12.8623 10.7006V9.27428C12.8623 7.38288 13.6136 5.56899 14.9511 4.23157C16.2885 2.89417 18.1024 2.14282 19.9938 2.14282C21.8851 2.14282 23.699 2.89417 25.0364 4.23157C26.3738 5.56899 27.1252 7.38288 27.1252 9.27428V10.7006" stroke="#FF3B30" stroke-width="1.73288" stroke-linecap="round" stroke-linejoin="round"/>
<path d="M15.7151 18.3391V30.1616" stroke="#FF3B30" stroke-width="1.73288" stroke-linecap="round" stroke-linejoin="round"/>
<path d="M24.2727 18.3391V30.1616" stroke="#FF3B30" stroke-width="1.73288" stroke-linecap="round" stroke-linejoin="round"/>
</svg>
