<svg width="20" height="20" viewBox="0 0 20 20" fill="none" xmlns="http://www.w3.org/2000/svg">
<path d="M15.2734 18.7501C14.5109 18.7501 13.4399 18.4743 11.8359 17.5783C9.88555 16.4845 8.37696 15.4747 6.43712 13.54C4.56681 11.6708 3.65665 10.4607 2.38282 8.1427C0.943759 5.52552 1.18907 4.15364 1.46329 3.56731C1.78985 2.86653 2.27188 2.44739 2.89493 2.03138C3.24882 1.79951 3.62332 1.60076 4.01368 1.43763C4.05274 1.42083 4.08907 1.40481 4.12149 1.39036C4.31485 1.30325 4.60782 1.17161 4.97892 1.31224C5.22657 1.4052 5.44767 1.59544 5.79376 1.93724C6.50352 2.63724 7.47345 4.19622 7.83126 4.96184C8.07149 5.47786 8.23048 5.81848 8.23087 6.20052C8.23087 6.64778 8.00587 6.9927 7.73282 7.36497C7.68165 7.43489 7.63087 7.50169 7.58165 7.56653C7.28438 7.95716 7.21915 8.07005 7.26212 8.27161C7.34923 8.67669 7.99884 9.88255 9.06641 10.9478C10.134 12.013 11.3051 12.6216 11.7117 12.7083C11.9219 12.7533 12.0371 12.6853 12.4402 12.3775C12.4981 12.3333 12.5574 12.2876 12.6195 12.2419C13.0359 11.9322 13.3649 11.713 13.8016 11.713H13.8039C14.184 11.713 14.5094 11.8779 15.0484 12.1497C15.7516 12.5044 17.3574 13.4618 18.0617 14.1724C18.4043 14.5177 18.5953 14.738 18.6887 14.9853C18.8293 15.3575 18.6969 15.6493 18.6106 15.8447C18.5961 15.8771 18.5801 15.9126 18.5633 15.9521C18.3989 16.3417 18.1989 16.7155 17.966 17.0685C17.5508 17.6896 17.1301 18.1704 16.4277 18.4974C16.0671 18.668 15.6724 18.7544 15.2734 18.7501Z" fill="#4CBFFF"/>
</svg>
