<svg width="20" height="20" viewBox="0 0 20 20" fill="none" xmlns="http://www.w3.org/2000/svg">
<path d="M17.5 16.6666C17.5 16.8876 17.4122 17.0996 17.2559 17.2559C17.0996 17.4122 16.8877 17.5 16.6667 17.5H3.33333C3.11232 17.5 2.90036 17.4122 2.74408 17.2559C2.5878 17.0996 2.5 16.8876 2.5 16.6666V7.9083C2.49991 7.78131 2.52885 7.65598 2.5846 7.54188C2.64035 7.42778 2.72143 7.32793 2.82167 7.24996L9.48833 2.06413C9.63462 1.95033 9.81467 1.88855 10 1.88855C10.1853 1.88855 10.3654 1.95033 10.5117 2.06413L17.1783 7.24996C17.2786 7.32793 17.3597 7.42778 17.4154 7.54188C17.4712 7.65598 17.5001 7.78131 17.5 7.9083V16.6666Z" fill="white"/>
</svg>
