<svg width="16" height="16" viewBox="0 0 16 16" fill="none" xmlns="http://www.w3.org/2000/svg">
<path d="M11.4133 6.58667C11.0385 6.21183 10.5301 6.00125 10 6.00125C9.4699 6.00125 8.96151 6.21183 8.58667 6.58667C8.21183 6.96151 8.00125 7.4699 8.00125 8C8.00125 8.5301 8.21183 9.03849 8.58667 9.41333C8.77227 9.59894 8.99261 9.74616 9.23511 9.84661C9.47761 9.94706 9.73752 9.99876 10 9.99876C10.2625 9.99876 10.5224 9.94706 10.7649 9.84661C11.0074 9.74616 11.2277 9.59894 11.4133 9.41333C11.5989 9.22773 11.7462 9.00739 11.8466 8.76489C11.9471 8.52239 11.9988 8.26248 11.9988 8C11.9988 7.73752 11.9471 7.47761 11.8466 7.23511C11.7462 6.99261 11.5989 6.77227 11.4133 6.58667ZM4.66667 4V12H15.3333V4H4.66667ZM14 9.33333C13.6467 9.33333 13.3067 9.47333 13.06 9.72667C12.8067 9.97333 12.6667 10.3133 12.6667 10.6667H7.33333C7.33333 10.3133 7.19333 9.97333 6.94 9.72667C6.69333 9.47333 6.35333 9.33333 6 9.33333V6.66667C6.35333 6.66667 6.69333 6.52667 6.94 6.27333C7.19333 6.02667 7.33333 5.68667 7.33333 5.33333H12.6667C12.6667 5.68667 12.8067 6.02667 13.06 6.27333C13.3067 6.52667 13.6467 6.66667 14 6.66667V9.33333ZM3.33333 5.33333H2C1.63333 5.33333 1.33333 5.03333 1.33333 4.66667C1.33333 4.3 1.63333 4 2 4H3.33333V5.33333ZM3.33333 8.66667H1.33333C0.966667 8.66667 0.666667 8.36667 0.666667 8C0.666667 7.63333 0.966667 7.33333 1.33333 7.33333H3.33333V8.66667ZM3.33333 12H0.666667C0.298667 12 0 11.7 0 11.3333C0 10.9667 0.298667 10.6667 0.666667 10.6667H3.33333V12Z" fill="white"/>
</svg>
