<svg width="20" height="20" viewBox="0 0 20 20" fill="none" xmlns="http://www.w3.org/2000/svg">
<path fill-rule="evenodd" clip-rule="evenodd" d="M11.875 2.08333C11.875 2.02808 11.8531 1.97509 11.814 1.93602C11.7749 1.89695 11.7219 1.875 11.6667 1.875H5.83335C5.22557 1.875 4.64267 2.11644 4.2129 2.54621C3.78313 2.97598 3.54169 3.55888 3.54169 4.16667V15.8333C3.54169 16.4411 3.78313 17.024 4.2129 17.4538C4.64267 17.8836 5.22557 18.125 5.83335 18.125H14.1667C14.7745 18.125 15.3574 17.8836 15.7871 17.4538C16.2169 17.024 16.4584 16.4411 16.4584 15.8333V7.6225C16.4584 7.56725 16.4364 7.51426 16.3973 7.47519C16.3583 7.43612 16.3053 7.41417 16.25 7.41417H12.5C12.3343 7.41417 12.1753 7.34832 12.0581 7.23111C11.9409 7.1139 11.875 6.95493 11.875 6.78917V2.08333ZM12.5 10.2083C12.6658 10.2083 12.8248 10.2742 12.942 10.3914C13.0592 10.5086 13.125 10.6676 13.125 10.8333C13.125 10.9991 13.0592 11.1581 12.942 11.2753C12.8248 11.3925 12.6658 11.4583 12.5 11.4583H7.50002C7.33426 11.4583 7.17529 11.3925 7.05808 11.2753C6.94087 11.1581 6.87502 10.9991 6.87502 10.8333C6.87502 10.6676 6.94087 10.5086 7.05808 10.3914C7.17529 10.2742 7.33426 10.2083 7.50002 10.2083H12.5ZM12.5 13.5417C12.6658 13.5417 12.8248 13.6075 12.942 13.7247C13.0592 13.8419 13.125 14.0009 13.125 14.1667C13.125 14.3324 13.0592 14.4914 12.942 14.6086C12.8248 14.7258 12.6658 14.7917 12.5 14.7917H7.50002C7.33426 14.7917 7.17529 14.7258 7.05808 14.6086C6.94087 14.4914 6.87502 14.3324 6.87502 14.1667C6.87502 14.0009 6.94087 13.8419 7.05808 13.7247C7.17529 13.6075 7.33426 13.5417 7.50002 13.5417H12.5Z" fill="white"/>
<path d="M13.125 2.35322C13.125 2.19988 13.2858 2.10238 13.405 2.19822C13.5061 2.27988 13.5958 2.37488 13.6742 2.48322L16.185 5.98072C16.2417 6.06072 16.18 6.16405 16.0817 6.16405H13.3333C13.2781 6.16405 13.2251 6.1421 13.186 6.10303C13.1469 6.06396 13.125 6.01097 13.125 5.95572V2.35322Z" fill="white"/>
</svg>
