<svg width="20" height="20" viewBox="0 0 20 20" fill="none" xmlns="http://www.w3.org/2000/svg">
<path d="M17.1875 8.75001V16.25C17.1875 16.6644 17.0229 17.0618 16.7299 17.3549C16.4368 17.6479 16.0394 17.8125 15.625 17.8125H4.375C3.9606 17.8125 3.56317 17.6479 3.27015 17.3549C2.97712 17.0618 2.8125 16.6644 2.8125 16.25V8.75001C2.8125 8.33561 2.97712 7.93818 3.27015 7.64515C3.56317 7.35213 3.9606 7.18751 4.375 7.18751H5.9375C6.18614 7.18751 6.4246 7.28628 6.60041 7.46209C6.77623 7.63791 6.875 7.87637 6.875 8.12501C6.875 8.37365 6.77623 8.6121 6.60041 8.78792C6.4246 8.96374 6.18614 9.06251 5.9375 9.06251H4.6875V15.9375H15.3125V9.06251H14.0625C13.8139 9.06251 13.5754 8.96374 13.3996 8.78792C13.2238 8.6121 13.125 8.37365 13.125 8.12501C13.125 7.87637 13.2238 7.63791 13.3996 7.46209C13.5754 7.28628 13.8139 7.18751 14.0625 7.18751H15.625C16.0394 7.18751 16.4368 7.35213 16.7299 7.64515C17.0229 7.93818 17.1875 8.33561 17.1875 8.75001ZM7.53828 5.66329L9.0625 4.14063V10.625C9.0625 10.8736 9.16127 11.1121 9.33709 11.2879C9.5129 11.4637 9.75136 11.5625 10 11.5625C10.2486 11.5625 10.4871 11.4637 10.6629 11.2879C10.8387 11.1121 10.9375 10.8736 10.9375 10.625V4.14063L12.4617 5.66563C12.5489 5.75284 12.6525 5.82201 12.7664 5.86921C12.8803 5.9164 13.0025 5.9407 13.1258 5.9407C13.2491 5.9407 13.3712 5.9164 13.4852 5.86921C13.5991 5.82201 13.7026 5.75284 13.7898 5.66563C13.877 5.57843 13.9462 5.4749 13.9934 5.36096C14.0406 5.24702 14.0649 5.1249 14.0649 5.00157C14.0649 4.87824 14.0406 4.75612 13.9934 4.64218C13.9462 4.52824 13.877 4.42471 13.7898 4.33751L10.6648 1.21251C10.5777 1.12511 10.4743 1.05576 10.3603 1.00844C10.2463 0.961125 10.1242 0.936768 10.0008 0.936768C9.87739 0.936768 9.75522 0.961125 9.64126 1.00844C9.52731 1.05576 9.42382 1.12511 9.33672 1.21251L6.21172 4.33751C6.12451 4.42471 6.05534 4.52824 6.00814 4.64218C5.96095 4.75612 5.93665 4.87824 5.93665 5.00157C5.93665 5.25064 6.0356 5.48951 6.21172 5.66563C6.38784 5.84175 6.62671 5.9407 6.87578 5.9407C7.12485 5.9407 7.36372 5.84175 7.53984 5.66563L7.53828 5.66329Z" fill="white"/>
</svg>
