<svg width="16" height="16" viewBox="0 0 16 16" fill="none" xmlns="http://www.w3.org/2000/svg">
<g clip-path="url(#clip0_3344_2170)">
<path fill-rule="evenodd" clip-rule="evenodd" d="M3.35197 3.98971C4.6354 3.06399 6.2354 2.28571 7.99997 2.28571C9.76454 2.28571 11.3645 3.06513 12.648 3.98971C13.9371 4.91771 14.9565 6.02856 15.5737 6.77485L15.5794 6.78056C15.8548 7.12342 16 7.55885 16 7.99999C16 8.44113 15.8548 8.87542 15.5794 9.21942L15.5737 9.22513C14.9565 9.97142 13.9371 11.0823 12.648 12.0103C11.3645 12.9371 9.76454 13.7143 7.99997 13.7143C6.2354 13.7143 4.6354 12.9348 3.35197 12.0114C2.06283 11.0811 1.0434 9.97028 0.426256 9.22399L0.420542 9.21828C0.145815 8.87187 -0.00254257 8.44211 -2.96289e-05 7.99999C-2.96289e-05 7.55885 0.145113 7.12456 0.420542 6.78056L0.426256 6.77485C1.0434 6.02856 2.06283 4.91771 3.35197 3.98971ZM7.99997 10.5714C8.33766 10.5714 8.67203 10.5049 8.98401 10.3757C9.29599 10.2465 9.57947 10.057 9.81824 9.81827C10.057 9.57949 10.2464 9.29601 10.3757 8.98403C10.5049 8.67205 10.5714 8.33768 10.5714 7.99999C10.5714 7.66231 10.5049 7.32793 10.3757 7.01595C10.2464 6.70397 10.057 6.4205 9.81824 6.18172C9.57947 5.94294 9.29599 5.75353 8.98401 5.6243C8.67203 5.49507 8.33766 5.42856 7.99997 5.42856C7.31799 5.42856 6.66393 5.69948 6.1817 6.18172C5.69946 6.66395 5.42854 7.31801 5.42854 7.99999C5.42854 8.68198 5.69946 9.33603 6.1817 9.81827C6.66393 10.3005 7.31799 10.5714 7.99997 10.5714Z" fill="#5A5A5A"/>
</g>
<defs>
<clipPath id="clip0_3344_2170">
<rect width="16" height="16" fill="white"/>
</clipPath>
</defs>
</svg>
