<svg width="20" height="20" viewBox="0 0 20 20" fill="none" xmlns="http://www.w3.org/2000/svg">
<path d="M7.5 5C7.33424 5 7.17527 5.06585 7.05806 5.18306C6.94085 5.30027 6.875 5.45924 6.875 5.625V6.875C6.875 7.04076 6.94085 7.19973 7.05806 7.31694C7.17527 7.43415 7.33424 7.5 7.5 7.5H12.5C12.6658 7.5 12.8247 7.43415 12.9419 7.31694C13.0592 7.19973 13.125 7.04076 13.125 6.875V5.625C13.125 5.45924 13.0592 5.30027 12.9419 5.18306C12.8247 5.06585 12.6658 5 12.5 5H7.5Z" fill="white"/>
<path d="M2.5 1.875C2.5 1.54348 2.6317 1.22554 2.86612 0.991117C3.10054 0.756696 3.41848 0.625 3.75 0.625H16.875C17.2065 0.625 17.5245 0.756696 17.7589 0.991117C17.9933 1.22554 18.125 1.54348 18.125 1.875V17.5C18.125 17.8315 17.9933 18.1495 17.7589 18.3839C17.5245 18.6183 17.2065 18.75 16.875 18.75H3.75C3.41848 18.75 3.10054 18.6183 2.86612 18.3839C2.6317 18.1495 2.5 17.8315 2.5 17.5V15.4625C2.21248 15.2788 1.97587 15.0256 1.81202 14.7263C1.64817 14.427 1.56235 14.0912 1.5625 13.75C1.5625 13.0763 1.89063 12.4788 2.39563 12.1094C2.13743 11.9208 1.92741 11.6739 1.78264 11.3888C1.63787 11.1037 1.56244 10.7885 1.5625 10.4688C1.5625 9.795 1.89063 9.1975 2.39563 8.82812C2.13743 8.63953 1.92741 8.39264 1.78264 8.10756C1.63787 7.82247 1.56244 7.50724 1.5625 7.1875C1.5625 6.51375 1.89063 5.91625 2.39563 5.54688C2.13743 5.35828 1.92741 5.11139 1.78264 4.82631C1.63787 4.54122 1.56244 4.22599 1.5625 3.90625C1.56235 3.56504 1.64817 3.22928 1.81202 2.92998C1.97587 2.63068 2.21248 2.37748 2.5 2.19375V1.875ZM3.75 12.6675V15.625H16.875V1.875H3.75V1.88125C3.88958 1.89167 4.02479 1.91583 4.15563 1.95375C4.28188 1.93812 4.49625 2.03937 4.72438 2.21875C4.97953 2.38975 5.19257 2.61639 5.34749 2.88162C5.5024 3.14685 5.59515 3.44375 5.61875 3.75H5.625C5.625 3.87432 5.57561 3.99355 5.48771 4.08146C5.3998 4.16936 5.28057 4.21875 5.15625 4.21875C5.03193 4.21875 4.9127 4.16936 4.82479 4.08146C4.73689 3.99355 4.6875 3.87432 4.6875 3.75H4.67625C4.64252 3.51632 4.53407 3.29983 4.36712 3.13288C4.20017 2.96593 3.98368 2.85749 3.75 2.82375V5.16187C3.88958 5.17271 4.02479 5.19708 4.15563 5.235C4.28188 5.21938 4.49625 5.32063 4.72438 5.5C4.97964 5.67094 5.19281 5.89755 5.34783 6.16278C5.50286 6.42801 5.5957 6.72495 5.61938 7.03125H5.625C5.625 7.15557 5.57561 7.2748 5.48771 7.36271C5.3998 7.45061 5.28057 7.5 5.15625 7.5C5.03193 7.5 4.9127 7.45061 4.82479 7.36271C4.73689 7.2748 4.6875 7.15557 4.6875 7.03125H4.67625C4.64252 6.79757 4.53407 6.58108 4.36712 6.41413C4.20017 6.24718 3.98368 6.13873 3.75 6.105V8.44312C3.88958 8.45437 4.02479 8.47875 4.15563 8.51625C4.28188 8.50125 4.49625 8.60125 4.72438 8.78125C4.97953 8.95225 5.19257 9.17889 5.34749 9.44412C5.5024 9.70935 5.59515 10.0063 5.61875 10.3125H5.625C5.625 10.4368 5.57561 10.556 5.48771 10.644C5.3998 10.7319 5.28057 10.7812 5.15625 10.7812C5.03193 10.7812 4.9127 10.7319 4.82479 10.644C4.73689 10.556 4.6875 10.4368 4.6875 10.3125H4.67625C4.64252 10.0788 4.53407 9.86233 4.36712 9.69538C4.20017 9.52843 3.98368 9.41998 3.75 9.38625V11.7244C3.88958 11.7352 4.02479 11.7596 4.15563 11.7975C4.28188 11.7825 4.49625 11.8825 4.72438 12.0619C4.9796 12.2329 5.1927 12.4597 5.34762 12.725C5.50254 12.9904 5.59524 13.2874 5.61875 13.5938H5.625C5.625 13.7181 5.57561 13.8373 5.48771 13.9252C5.3998 14.0131 5.28057 14.0625 5.15625 14.0625C5.03193 14.0625 4.9127 14.0131 4.82479 13.9252C4.73689 13.8373 4.6875 13.7181 4.6875 13.5938H4.67625C4.64252 13.3601 4.53407 13.1436 4.36712 12.9766C4.20017 12.8097 3.98368 12.7012 3.75 12.6675ZM3.75 16.875V17.5H16.875V16.875H3.75Z" fill="white"/>
</svg>
