<svg width="20" height="20" viewBox="0 0 20 20" fill="none" xmlns="http://www.w3.org/2000/svg">
<path d="M16.6667 3.3335H3.33335C2.41669 3.3335 1.67502 4.0835 1.67502 5.00016L1.66669 15.0002C1.66669 15.9168 2.41669 16.6668 3.33335 16.6668H16.6667C17.5834 16.6668 18.3334 15.9168 18.3334 15.0002V5.00016C18.3334 4.0835 17.5834 3.3335 16.6667 3.3335ZM16.3334 6.87516L10.4417 10.5585C10.175 10.7252 9.82502 10.7252 9.55835 10.5585L3.66669 6.87516C3.58313 6.82826 3.50995 6.76488 3.45159 6.68887C3.39324 6.61287 3.35091 6.52581 3.32717 6.43297C3.30343 6.34013 3.29877 6.24344 3.31348 6.14875C3.3282 6.05406 3.36197 5.96334 3.41276 5.88208C3.46354 5.80082 3.53029 5.73071 3.60896 5.67599C3.68763 5.62127 3.77658 5.58309 3.87043 5.56374C3.96429 5.5444 4.06109 5.5443 4.15498 5.56345C4.24888 5.5826 4.33791 5.62061 4.41669 5.67516L10 9.16683L15.5834 5.67516C15.6621 5.62061 15.7512 5.5826 15.8451 5.56345C15.939 5.5443 16.0358 5.5444 16.1296 5.56374C16.2235 5.58309 16.3124 5.62127 16.3911 5.67599C16.4697 5.73071 16.5365 5.80082 16.5873 5.88208C16.6381 5.96334 16.6718 6.05406 16.6866 6.14875C16.7013 6.24344 16.6966 6.34013 16.6729 6.43297C16.6491 6.52581 16.6068 6.61287 16.5484 6.68887C16.4901 6.76488 16.4169 6.82826 16.3334 6.87516Z" fill="#32ADE6"/>
</svg>
