<svg width="20" height="20" viewBox="0 0 20 20" fill="none" xmlns="http://www.w3.org/2000/svg">
<path d="M2 6.75C2 6.02065 2.28973 5.32118 2.80546 4.80546C3.32118 4.28973 4.02065 4 4.75 4H15.25C15.9793 4 16.6788 4.28973 17.1945 4.80546C17.7103 5.32118 18 6.02065 18 6.75V12.25C18 12.9793 17.7103 13.6788 17.1945 14.1945C16.6788 14.7103 15.9793 15 15.25 15H4.75C4.02065 15 3.32118 14.7103 2.80546 14.1945C2.28973 13.6788 2 12.9793 2 12.25V6.75ZM7.146 8.146L6.5 8.793L5.854 8.146C5.76011 8.05211 5.63278 7.99937 5.5 7.99937C5.36722 7.99937 5.23989 8.05211 5.146 8.146C5.05211 8.23989 4.99937 8.36722 4.99937 8.5C4.99937 8.63278 5.05211 8.76011 5.146 8.854L5.793 9.5L5.146 10.146C5.05211 10.2399 4.99937 10.3672 4.99937 10.5C4.99937 10.6328 5.05211 10.7601 5.146 10.854C5.23989 10.9479 5.36722 11.0006 5.5 11.0006C5.63278 11.0006 5.76011 10.9479 5.854 10.854L6.5 10.207L7.146 10.854C7.23989 10.9479 7.36722 11.0006 7.5 11.0006C7.63278 11.0006 7.76011 10.9479 7.854 10.854C7.94789 10.7601 8.00063 10.6328 8.00063 10.5C8.00063 10.3672 7.94789 10.2399 7.854 10.146L7.207 9.5L7.854 8.854C7.90049 8.80751 7.93736 8.75232 7.96252 8.69158C7.98768 8.63084 8.00063 8.56574 8.00063 8.5C8.00063 8.43426 7.98768 8.36916 7.96252 8.30842C7.93736 8.24768 7.90049 8.19249 7.854 8.146C7.80751 8.09951 7.75232 8.06264 7.69158 8.03748C7.63084 8.01232 7.56574 7.99937 7.5 7.99937C7.43426 7.99937 7.36916 8.01232 7.30842 8.03748C7.24768 8.06264 7.19249 8.09951 7.146 8.146ZM11.146 8.146L10.5 8.793L9.854 8.146C9.76011 8.05211 9.63278 7.99937 9.5 7.99937C9.36722 7.99937 9.23989 8.05211 9.146 8.146C9.05211 8.23989 8.99937 8.36722 8.99937 8.5C8.99937 8.63278 9.05211 8.76011 9.146 8.854L9.793 9.5L9.146 10.146C9.05211 10.2399 8.99937 10.3672 8.99937 10.5C8.99937 10.6328 9.05211 10.7601 9.146 10.854C9.23989 10.9479 9.36722 11.0006 9.5 11.0006C9.63278 11.0006 9.76011 10.9479 9.854 10.854L10.5 10.207L11.146 10.854C11.2399 10.9479 11.3672 11.0006 11.5 11.0006C11.6328 11.0006 11.7601 10.9479 11.854 10.854C11.9479 10.7601 12.0006 10.6328 12.0006 10.5C12.0006 10.3672 11.9479 10.2399 11.854 10.146L11.207 9.5L11.854 8.854C11.9005 8.80751 11.9374 8.75232 11.9625 8.69158C11.9877 8.63084 12.0006 8.56574 12.0006 8.5C12.0006 8.43426 11.9877 8.36916 11.9625 8.30842C11.9374 8.24768 11.9005 8.19249 11.854 8.146C11.8075 8.09951 11.7523 8.06264 11.6916 8.03748C11.6308 8.01232 11.5657 7.99937 11.5 7.99937C11.4343 7.99937 11.3692 8.01232 11.3084 8.03748C11.2477 8.06264 11.1925 8.09951 11.146 8.146ZM13 10.5C13 10.6326 13.0527 10.7598 13.1464 10.8536C13.2402 10.9473 13.3674 11 13.5 11H15.5C15.6326 11 15.7598 10.9473 15.8536 10.8536C15.9473 10.7598 16 10.6326 16 10.5C16 10.3674 15.9473 10.2402 15.8536 10.1464C15.7598 10.0527 15.6326 10 15.5 10H13.5C13.3674 10 13.2402 10.0527 13.1464 10.1464C13.0527 10.2402 13 10.3674 13 10.5Z" fill="#7A6EFF"/>
</svg>
