<svg width="20" height="20" viewBox="0 0 20 20" fill="none" xmlns="http://www.w3.org/2000/svg">
<path d="M14.1668 10C11.8668 10 10.0002 11.8667 10.0002 14.1667C10.0002 16.4667 11.8668 18.3334 14.1668 18.3334C16.4668 18.3334 18.3335 16.4667 18.3335 14.1667C18.3335 11.8667 16.4668 10 14.1668 10ZM15.5418 16.125L13.7502 14.3334V11.6667H14.5835V13.9917L16.1252 15.5334L15.5418 16.125ZM16.6668 2.50004H12.3502C12.0002 1.53337 11.0835 0.833374 10.0002 0.833374C8.91683 0.833374 8.00016 1.53337 7.65016 2.50004H3.3335V18.3334H10.0918C9.59819 17.8554 9.19702 17.2903 8.9085 16.6667H5.00016V4.16671H6.66683V6.66671H13.3335V4.16671H15.0002V8.40004C15.5918 8.48337 16.1502 8.65837 16.6668 8.90004V2.50004ZM10.0002 4.16671C9.54183 4.16671 9.16683 3.79171 9.16683 3.33337C9.16683 2.87504 9.54183 2.50004 10.0002 2.50004C10.4585 2.50004 10.8335 2.87504 10.8335 3.33337C10.8335 3.79171 10.4585 4.16671 10.0002 4.16671Z" fill="white"/>
</svg>
