<svg width="20" height="20" viewBox="0 0 20 20" fill="none" xmlns="http://www.w3.org/2000/svg">
<path d="M15.8334 3.33317H15V2.49984C15 1.99984 14.6667 1.6665 14.1667 1.6665C13.6667 1.6665 13.3334 1.99984 13.3334 2.49984V3.33317H6.66669V2.49984C6.66669 1.99984 6.33335 1.6665 5.83335 1.6665C5.33335 1.6665 5.00002 1.99984 5.00002 2.49984V3.33317H4.16669C2.75002 3.33317 1.66669 4.4165 1.66669 5.83317V6.6665H18.3334V5.83317C18.3334 4.4165 17.25 3.33317 15.8334 3.33317ZM1.66669 15.8332C1.66669 17.2498 2.75002 18.3332 4.16669 18.3332H15.8334C17.25 18.3332 18.3334 17.2498 18.3334 15.8332V8.33317H1.66669V15.8332ZM14.1667 9.99984C14.6667 9.99984 15 10.3332 15 10.8332C15 11.3332 14.6667 11.6665 14.1667 11.6665C13.6667 11.6665 13.3334 11.3332 13.3334 10.8332C13.3334 10.3332 13.6667 9.99984 14.1667 9.99984ZM14.1667 13.3332C14.6667 13.3332 15 13.6665 15 14.1665C15 14.6665 14.6667 14.9998 14.1667 14.9998C13.6667 14.9998 13.3334 14.6665 13.3334 14.1665C13.3334 13.6665 13.6667 13.3332 14.1667 13.3332ZM10 9.99984C10.5 9.99984 10.8334 10.3332 10.8334 10.8332C10.8334 11.3332 10.5 11.6665 10 11.6665C9.50002 11.6665 9.16669 11.3332 9.16669 10.8332C9.16669 10.3332 9.50002 9.99984 10 9.99984ZM10 13.3332C10.5 13.3332 10.8334 13.6665 10.8334 14.1665C10.8334 14.6665 10.5 14.9998 10 14.9998C9.50002 14.9998 9.16669 14.6665 9.16669 14.1665C9.16669 13.6665 9.50002 13.3332 10 13.3332ZM5.83335 9.99984C6.33335 9.99984 6.66669 10.3332 6.66669 10.8332C6.66669 11.3332 6.33335 11.6665 5.83335 11.6665C5.33335 11.6665 5.00002 11.3332 5.00002 10.8332C5.00002 10.3332 5.33335 9.99984 5.83335 9.99984ZM5.83335 13.3332C6.33335 13.3332 6.66669 13.6665 6.66669 14.1665C6.66669 14.6665 6.33335 14.9998 5.83335 14.9998C5.33335 14.9998 5.00002 14.6665 5.00002 14.1665C5.00002 13.6665 5.33335 13.3332 5.83335 13.3332Z" fill="white"/>
</svg>
