<svg width="40" height="40" viewBox="0 0 40 40" fill="none" xmlns="http://www.w3.org/2000/svg">
<path d="M20 3.3335C10.81 3.3335 3.33334 10.8102 3.33334 20.0002V26.9052C3.33334 28.6118 4.82834 30.0002 6.66668 30.0002H8.33334C8.77537 30.0002 9.19929 29.8246 9.51185 29.512C9.82441 29.1994 10 28.7755 10 28.3335V19.7618C10 19.3198 9.82441 18.8959 9.51185 18.5833C9.19929 18.2708 8.77537 18.0952 8.33334 18.0952H6.82001C7.74668 11.6452 13.2967 6.66683 20 6.66683C26.7033 6.66683 32.2533 11.6452 33.18 18.0952H31.6667C31.2246 18.0952 30.8007 18.2708 30.4882 18.5833C30.1756 18.8959 30 19.3198 30 19.7618V30.0002C30 31.8385 28.505 33.3335 26.6667 33.3335H23.3333V31.6668H16.6667V36.6668H26.6667C30.3433 36.6668 33.3333 33.6768 33.3333 30.0002C35.1717 30.0002 36.6667 28.6118 36.6667 26.9052V20.0002C36.6667 10.8102 29.19 3.3335 20 3.3335Z" fill="white"/>
</svg>
