<svg width="16" height="16" viewBox="0 0 16 16" fill="none" xmlns="http://www.w3.org/2000/svg">
<path d="M8.66665 2.66666C8.84346 2.66666 9.01303 2.73689 9.13805 2.86192C9.26308 2.98694 9.33331 3.15651 9.33331 3.33332H12C12.1003 3.33332 12.1994 3.35599 12.2898 3.39962C12.3802 3.44326 12.4596 3.50673 12.522 3.58532L12.5713 3.65732L14.5713 6.99066L14.608 7.05932L14.6346 7.13066L14.654 7.20332L14.6646 7.27666L14.6666 7.33332V11.3333C14.6666 11.5101 14.5964 11.6797 14.4714 11.8047C14.3464 11.9298 14.1768 12 14 12H13.2193C13.0813 12.3899 12.8258 12.7274 12.4881 12.9662C12.1503 13.2049 11.7469 13.3331 11.3333 13.3331C10.9197 13.3331 10.5163 13.2049 10.1785 12.9662C9.84078 12.7274 9.58532 12.3899 9.44731 12H6.55265C6.41464 12.3899 6.15918 12.7274 5.82143 12.9662C5.48368 13.2049 5.08025 13.3331 4.66665 13.3331C4.25305 13.3331 3.84961 13.2049 3.51186 12.9662C3.17412 12.7274 2.91866 12.3899 2.78065 12H1.99998C1.82317 12 1.6536 11.9298 1.52858 11.8047C1.40355 11.6797 1.33331 11.5101 1.33331 11.3333V3.99999C1.33331 3.64637 1.47379 3.30723 1.72384 3.05718C1.97389 2.80713 2.31302 2.66666 2.66665 2.66666H8.66665ZM4.66665 10.6667C4.48984 10.6667 4.32027 10.7369 4.19524 10.8619C4.07022 10.9869 3.99998 11.1565 3.99998 11.3333C3.99998 11.5101 4.07022 11.6797 4.19524 11.8047C4.32027 11.9298 4.48984 12 4.66665 12C4.84346 12 5.01303 11.9298 5.13805 11.8047C5.26308 11.6797 5.33331 11.5101 5.33331 11.3333C5.33331 11.1565 5.26308 10.9869 5.13805 10.8619C5.01303 10.7369 4.84346 10.6667 4.66665 10.6667ZM11.3333 10.6667C11.1565 10.6667 10.9869 10.7369 10.8619 10.8619C10.7369 10.9869 10.6666 11.1565 10.6666 11.3333C10.6666 11.5101 10.7369 11.6797 10.8619 11.8047C10.9869 11.9298 11.1565 12 11.3333 12C11.5101 12 11.6797 11.9298 11.8047 11.8047C11.9297 11.6797 12 11.5101 12 11.3333C12 11.1565 11.9297 10.9869 11.8047 10.8619C11.6797 10.7369 11.5101 10.6667 11.3333 10.6667ZM11.6226 4.66666H9.33331V6.66666H12.8226L11.6226 4.66666Z" fill="white"/>
</svg>
