<svg width="20" height="20" viewBox="0 0 20 20" fill="none" xmlns="http://www.w3.org/2000/svg">
<path d="M10 3.125C9.17122 3.125 8.37636 3.45424 7.79031 4.04029C7.20426 4.62634 6.87502 5.4212 6.87502 6.25C6.87502 7.0788 7.20426 7.87366 7.79031 8.45971C8.37636 9.04576 9.17122 9.375 10 9.375C10.8288 9.375 11.6237 9.04576 12.2097 8.45971C12.7958 7.87366 13.125 7.0788 13.125 6.25C13.125 5.4212 12.7958 4.62634 12.2097 4.04029C11.6237 3.45424 10.8288 3.125 10 3.125ZM6.66669 11.0417C5.83789 11.0417 5.04303 11.3709 4.45698 11.957C3.87093 12.543 3.54169 13.3379 3.54169 14.1667V15.1567C3.54169 15.785 3.99669 16.32 4.61669 16.4208C8.18169 17.0033 11.8184 17.0033 15.3834 16.4208C15.6832 16.3715 15.9558 16.2174 16.1527 15.9859C16.3495 15.7544 16.4578 15.4605 16.4584 15.1567V14.1667C16.4584 13.3379 16.1291 12.543 15.5431 11.957C14.957 11.3709 14.1622 11.0417 13.3334 11.0417H13.05C12.8945 11.0422 12.7434 11.0661 12.5967 11.1133L11.875 11.3492C10.6567 11.7469 9.34338 11.7469 8.12502 11.3492L7.40335 11.1133C7.25708 11.0664 7.10447 11.0422 6.95085 11.0417H6.66669Z" fill="white"/>
</svg>
