<svg width="25" height="20" viewBox="0 0 25 20" fill="none" xmlns="http://www.w3.org/2000/svg">
<path d="M3.75 8.75C5.12891 8.75 6.25 7.62891 6.25 6.25C6.25 4.87109 5.12891 3.75 3.75 3.75C2.37109 3.75 1.25 4.87109 1.25 6.25C1.25 7.62891 2.37109 8.75 3.75 8.75ZM21.25 8.75C22.6289 8.75 23.75 7.62891 23.75 6.25C23.75 4.87109 22.6289 3.75 21.25 3.75C19.8711 3.75 18.75 4.87109 18.75 6.25C18.75 7.62891 19.8711 8.75 21.25 8.75ZM22.5 10H20C19.3125 10 18.6914 10.2773 18.2383 10.7266C19.8125 11.5898 20.9297 13.1484 21.1719 15H23.75C24.4414 15 25 14.4414 25 13.75V12.5C25 11.1211 23.8789 10 22.5 10ZM12.5 10C14.918 10 16.875 8.04297 16.875 5.625C16.875 3.20703 14.918 1.25 12.5 1.25C10.082 1.25 8.125 3.20703 8.125 5.625C8.125 8.04297 10.082 10 12.5 10ZM15.5 11.25H15.1758C14.3633 11.6406 13.4609 11.875 12.5 11.875C11.5391 11.875 10.6406 11.6406 9.82422 11.25H9.5C7.01562 11.25 5 13.2656 5 15.75V16.875C5 17.9102 5.83984 18.75 6.875 18.75H18.125C19.1602 18.75 20 17.9102 20 16.875V15.75C20 13.2656 17.9844 11.25 15.5 11.25ZM6.76172 10.7266C6.30859 10.2773 5.6875 10 5 10H2.5C1.12109 10 0 11.1211 0 12.5V13.75C0 14.4414 0.558594 15 1.25 15H3.82422C4.07031 13.1484 5.1875 11.5898 6.76172 10.7266Z" fill="white"/>
</svg>
