<svg width="20" height="20" viewBox="0 0 20 20" fill="none" xmlns="http://www.w3.org/2000/svg">
<path d="M14.1667 16.25C14.1667 14.8692 12.3008 13.75 10 13.75C7.69917 13.75 5.83333 14.8692 5.83333 16.25M17.5 13.75C17.5 12.725 16.4717 11.8442 15 11.4584M2.5 13.75C2.5 12.725 3.52833 11.8442 5 11.4584M15 8.11338C15.2469 7.89512 15.4482 7.63021 15.5923 7.33387C15.7365 7.03754 15.8206 6.71564 15.8399 6.38668C15.8592 6.05771 15.8132 5.72818 15.7047 5.41704C15.5962 5.10589 15.4272 4.81927 15.2075 4.57366C14.9878 4.32805 14.7218 4.12829 14.4246 3.98588C14.1274 3.84347 13.805 3.76121 13.476 3.74383C13.1469 3.72646 12.8176 3.77431 12.5071 3.88464C12.1966 3.99497 11.911 4.1656 11.6667 4.38671M5 8.11338C4.51025 7.67017 4.2158 7.05115 4.18097 6.39154C4.14615 5.73194 4.37377 5.08535 4.81413 4.59303C5.25449 4.10072 5.87178 3.80267 6.53118 3.76402C7.19057 3.72536 7.83846 3.94922 8.33333 4.38671M10 11.25C9.33696 11.25 8.70107 10.9867 8.23223 10.5178C7.76339 10.049 7.5 9.41308 7.5 8.75004C7.5 8.087 7.76339 7.45112 8.23223 6.98228C8.70107 6.51344 9.33696 6.25004 10 6.25004C10.663 6.25004 11.2989 6.51344 11.7678 6.98228C12.2366 7.45112 12.5 8.087 12.5 8.75004C12.5 9.41308 12.2366 10.049 11.7678 10.5178C11.2989 10.9867 10.663 11.25 10 11.25Z" stroke="white" stroke-width="1.25" stroke-linecap="round" stroke-linejoin="round"/>
</svg>
