<svg width="20" height="20" viewBox="0 0 20 20" fill="none" xmlns="http://www.w3.org/2000/svg">
<path fill-rule="evenodd" clip-rule="evenodd" d="M4.16667 5.20837C3.55888 5.20837 2.97598 5.44982 2.54621 5.87959C2.11644 6.30936 1.875 6.89225 1.875 7.50004V15C1.875 15.6078 2.11644 16.1907 2.54621 16.6205C2.97598 17.0503 3.55888 17.2917 4.16667 17.2917H15.8333C16.4411 17.2917 17.024 17.0503 17.4538 16.6205C17.8836 16.1907 18.125 15.6078 18.125 15V7.50004C18.125 6.89225 17.8836 6.30936 17.4538 5.87959C17.024 5.44982 16.4411 5.20837 15.8333 5.20837H4.16667ZM13.75 10.2084C13.4737 10.2084 13.2088 10.3181 13.0134 10.5135C12.8181 10.7088 12.7083 10.9738 12.7083 11.25C12.7083 11.5263 12.8181 11.7913 13.0134 11.9866C13.2088 12.182 13.4737 12.2917 13.75 12.2917C14.0263 12.2917 14.2912 12.182 14.4866 11.9866C14.6819 11.7913 14.7917 11.5263 14.7917 11.25C14.7917 10.9738 14.6819 10.7088 14.4866 10.5135C14.2912 10.3181 14.0263 10.2084 13.75 10.2084Z" fill="white"/>
<path d="M13.7375 2.55755C13.9842 2.49179 14.2428 2.48361 14.4932 2.53364C14.7436 2.58366 14.9791 2.69055 15.1817 2.84605C15.3842 3.00156 15.5483 3.20152 15.6613 3.4305C15.7743 3.65948 15.8331 3.91137 15.8333 4.16671H7.5L13.7375 2.55755Z" fill="white"/>
</svg>
